<?xml version="1.0" encoding="UTF-8"?><svg id="Artwork" xmlns="http://www.w3.org/2000/svg" viewBox="0 0 422.7628 410.4654"><defs><style>.cls-1{fill:#e7f946;stroke-width:0px;}</style></defs><path class="cls-1" d="m114.9234,247.2617l-67.5211,95.2665c3.6835,4.5043,7.5497,8.852,11.5859,13.036l100.1692-106.712c6.4271-6.8458,8.5327-16.2662,5.6309-25.1965-2.9018-8.9323-10.1412-15.3163-19.3658-17.0775L1.6979,179.1356c-.796,5.7188-1.3681,11.5088-1.6979,17.3646l110.5707,37.365c2.6558.8977,4.675,2.942,5.5405,5.6068s.4318,5.5044-1.1878,7.7897Zm36.142-110.3448L30.3299,99.2477c-1.969,3.2588-3.8456,6.5793-5.6409,9.95l132.8789,62.4987c7.896,3.5038,19.7052,5.0901,28.8521-2.7264,6.2302-5.324,8.2692-15.2923,7.1091-23.3998L175.1659,0c-3.7744.6562-7.5171,1.4032-11.2201,2.2567l-1.485,126.3825c0,3.0911-.6413,5.619-2.5474,7.339-1.9144,1.7275-5.3552,2.039-8.8479.9387Zm155.5861,102.5551c.8655-2.6648,2.8847-4.7092,5.5405-5.6068l110.5707-37.365c-.3298-5.8558-.9019-11.6459-1.6979-17.3646l-143.7246,27.4426c-9.2245,1.7612-16.464,8.1451-19.3658,17.0775-2.9018,8.9303-.7962,18.3506,5.6309,25.1965l100.1692,106.712c4.0362-4.184,7.9024-8.5317,11.5859-13.036l-67.5211-95.2665c-1.6196-2.2853-2.0534-5.1248-1.1878-7.7897Zm-95.2698,18.3667c-9.3902,0-17.698,4.912-22.2244,13.1414l-70.4194,128.0388c9.1959,4.4822,18.7648,8.3163,28.648,11.4466l48.4827-65.1088c3.686-4.9501,9.341-7.7897,15.5131-7.7897,6.1721,0,11.8264,2.8395,15.5124,7.7897l48.4827,65.1088c9.8832-3.1302,19.4521-6.9643,28.648-11.4466l-70.4194-128.0388c-4.5264-8.2295-12.8335-13.1414-22.2237-13.1414Zm51.4677-121.8605c-1.9148-1.7103-2.5474-4.2479-2.5474-7.339l-1.485-126.3825c-3.7031-.8535-7.4458-1.6005-11.2201-2.2567l-18.3632,145.5701c-1.1601,8.1075.8789,18.0758,7.1091,23.3998,9.147,7.8165,20.9561,6.2302,28.8521,2.7264l132.8789-62.4987c-1.7953-3.3707-3.6719-6.6912-5.6409-9.95l-120.7356,37.6692c-3.319,1.0753-6.8505.8454-8.8479-.9387Z"/></svg>